<?xml version="1.0" encoding="UTF-8" standalone="no"?>
<!-- Created with Inkscape (http://www.inkscape.org/) -->
<svg
   xmlns:svg="http://www.w3.org/2000/svg"
   xmlns="http://www.w3.org/2000/svg"
   xmlns:xlink="http://www.w3.org/1999/xlink"
   version="1.0"
   width="48"
   height="48"
   id="svg1328">
  <defs
     id="defs3">
    <linearGradient
       id="linearGradient1535">
      <stop
         style="stop-color:#f67800;stop-opacity:1"
         offset="0"
         id="stop1537" />
      <stop
         style="stop-color:#fcaf3e;stop-opacity:1"
         offset="1"
         id="stop1539" />
    </linearGradient>
    <linearGradient
       id="linearGradient1523">
      <stop
         style="stop-color:#ce5c00;stop-opacity:1"
         offset="0"
         id="stop1525" />
      <stop
         style="stop-color:#fcaf3e;stop-opacity:1"
         offset="1"
         id="stop1527" />
    </linearGradient>
    <linearGradient
       id="linearGradient3338">
      <stop
         style="stop-color:#c36000;stop-opacity:1"
         offset="0"
         id="stop3340" />
      <stop
         style="stop-color:#fcaf3e;stop-opacity:1"
         offset="0.5"
         id="stop3346" />
      <stop
         style="stop-color:#f57900;stop-opacity:1"
         offset="1"
         id="stop3342" />
    </linearGradient>
    <linearGradient
       id="linearGradient3247">
      <stop
         style="stop-color:#f0f0f0;stop-opacity:1"
         offset="0"
         id="stop3249" />
      <stop
         style="stop-color:#f0f0f0;stop-opacity:0"
         offset="1"
         id="stop3251" />
    </linearGradient>
    <linearGradient
       id="linearGradient3233">
      <stop
         style="stop-color:#eeeeec;stop-opacity:1"
         offset="0"
         id="stop3235" />
      <stop
         style="stop-color:#a3a398;stop-opacity:1"
         offset="1"
         id="stop3237" />
    </linearGradient>
    <linearGradient
       id="linearGradient6924">
      <stop
         style="stop-color:#ffffff;stop-opacity:1"
         offset="0"
         id="stop6926" />
      <stop
         style="stop-color:#ffffff;stop-opacity:0"
         offset="1"
         id="stop6928" />
    </linearGradient>
    <linearGradient
       id="linearGradient4176">
      <stop
         style="stop-color:#ffffff;stop-opacity:1"
         offset="0"
         id="stop4178" />
      <stop
         style="stop-color:#ffffff;stop-opacity:0"
         offset="1"
         id="stop4180" />
    </linearGradient>
    <linearGradient
       id="linearGradient4134">
      <stop
         style="stop-color:#d6d7d5;stop-opacity:1"
         offset="0"
         id="stop4136" />
      <stop
         style="stop-color:#d1d2d0;stop-opacity:1"
         offset="0.25"
         id="stop4148" />
      <stop
         style="stop-color:#a5a6a3;stop-opacity:1"
         offset="0.5"
         id="stop4142" />
      <stop
         style="stop-color:#dddedc;stop-opacity:1"
         offset="1"
         id="stop4138" />
    </linearGradient>
    <linearGradient
       id="linearGradient4126">
      <stop
         style="stop-color:#000000;stop-opacity:1"
         offset="0"
         id="stop4128" />
      <stop
         style="stop-color:#000000;stop-opacity:0"
         offset="1"
         id="stop4130" />
    </linearGradient>
    <radialGradient
       cx="14.5474"
       cy="15.9844"
       r="4.5099001"
       fx="14.5474"
       fy="15.9844"
       id="aigrd5"
       gradientUnits="userSpaceOnUse"
       gradientTransform="matrix(0.907,0.4211,-0.4211,0.907,19.2898,-10.214)">
      <stop
         style="stop-color:#efefef;stop-opacity:1"
         offset="0"
         id="stop3686" />
      <stop
         style="stop-color:#6d6d6d;stop-opacity:1"
         offset="1"
         id="stop3688" />
    </radialGradient>
    <radialGradient
       cx="12.4722"
       cy="15.9321"
       r="6.1648998"
       fx="12.4722"
       fy="15.9321"
       id="aigrd6"
       gradientUnits="userSpaceOnUse"
       gradientTransform="matrix(0.907,0.4211,-0.4211,0.907,19.2898,-10.214)">
      <stop
         style="stop-color:#9e9e9e;stop-opacity:1"
         offset="0"
         id="stop3693" />
      <stop
         style="stop-color:#535353;stop-opacity:1"
         offset="1"
         id="stop3695" />
    </radialGradient>
    <linearGradient
       x1="14.9478"
       y1="19.6626"
       x2="37.1408"
       y2="11.6082"
       id="aigrd4"
       gradientUnits="userSpaceOnUse"
       gradientTransform="matrix(0.937963,0,0,0.937963,6.485913,12.6462)">
      <stop
         style="stop-color:#ebebeb;stop-opacity:1"
         offset="0"
         id="stop3671" />
      <stop
         style="stop-color:#818181;stop-opacity:1"
         offset="1"
         id="stop3673" />
    </linearGradient>
    <linearGradient
       x1="6.8618002"
       y1="27.3535"
       x2="39.192001"
       y2="15.62"
       id="aigrd3"
       gradientUnits="userSpaceOnUse"
       gradientTransform="matrix(0.937963,0,0,0.937963,6.485913,12.6462)">
      <stop
         style="stop-color:#fcfcfc;stop-opacity:1"
         offset="0"
         id="stop3664" />
      <stop
         style="stop-color:#bbbbbb;stop-opacity:1"
         offset="1"
         id="stop3666" />
    </linearGradient>
    <linearGradient
       x1="16.3447"
       y1="30.360399"
       x2="34.009102"
       y2="13.0483"
       id="aigrd2"
       gradientUnits="userSpaceOnUse"
       gradientTransform="matrix(0.937963,0,0,0.937963,6.485913,12.6462)">
      <stop
         style="stop-color:#686868;stop-opacity:1"
         offset="0"
         id="stop3655" />
      <stop
         style="stop-color:#6d6d6d;stop-opacity:1"
         offset="1"
         id="stop3657" />
    </linearGradient>
    <radialGradient
       cx="23.857143"
       cy="40"
       r="17.142857"
       fx="23.857143"
       fy="40"
       id="radialGradient13577"
       xlink:href="#linearGradient4126"
       gradientUnits="userSpaceOnUse"
       gradientTransform="matrix(1,0,0,0.5,0,20)" />
    <radialGradient
       cx="14.5474"
       cy="15.9844"
       r="4.5099001"
       fx="14.5474"
       fy="15.9844"
       id="radialGradient13607"
       xlink:href="#aigrd5"
       gradientUnits="userSpaceOnUse"
       gradientTransform="matrix(0.907,0.4211,-0.4211,0.907,19.2898,-10.214)" />
    <radialGradient
       cx="12.4722"
       cy="15.9321"
       r="6.1648998"
       fx="12.4722"
       fy="15.9321"
       id="radialGradient13609"
       xlink:href="#aigrd6"
       gradientUnits="userSpaceOnUse"
       gradientTransform="matrix(0.907,0.4211,-0.4211,0.907,19.2898,-10.214)" />
    <linearGradient
       x1="14.9478"
       y1="19.6626"
       x2="37.1408"
       y2="11.6082"
       id="linearGradient13630"
       xlink:href="#aigrd4"
       gradientUnits="userSpaceOnUse"
       gradientTransform="matrix(0.937963,0,0,0.937963,75.89859,5.391626)" />
    <linearGradient
       x1="6.8618002"
       y1="27.3535"
       x2="39.192001"
       y2="15.62"
       id="linearGradient13633"
       xlink:href="#aigrd3"
       gradientUnits="userSpaceOnUse"
       gradientTransform="matrix(0.937963,0,0,0.937963,75.89859,5.391626)" />
    <linearGradient
       x1="16.3447"
       y1="30.360399"
       x2="34.009102"
       y2="13.0483"
       id="linearGradient13637"
       xlink:href="#aigrd2"
       gradientUnits="userSpaceOnUse"
       gradientTransform="matrix(0.937963,0,0,0.937963,75.89859,5.391626)" />
    <linearGradient
       x1="16.3447"
       y1="30.360399"
       x2="34.009102"
       y2="13.0483"
       id="linearGradient13640"
       xlink:href="#aigrd2"
       gradientUnits="userSpaceOnUse"
       gradientTransform="matrix(0.937963,0,0,0.937963,75.90395,5.369806)" />
    <radialGradient
       cx="23.857143"
       cy="40"
       r="17.142857"
       fx="23.857143"
       fy="40"
       id="radialGradient13668"
       xlink:href="#linearGradient4126"
       gradientUnits="userSpaceOnUse"
       gradientTransform="matrix(1,0,0,0.5,0,20)" />
    <linearGradient
       x1="9.3030529"
       y1="26.71875"
       x2="38.826412"
       y2="26.71875"
       id="linearGradient13670"
       xlink:href="#linearGradient4134"
       gradientUnits="userSpaceOnUse"
       gradientTransform="matrix(1.010754,0,0,0.991346,-0.269358,-3.826541)" />
    <linearGradient
       x1="24"
       y1="17.245949"
       x2="23.433737"
       y2="8.0476589"
       id="linearGradient13672"
       xlink:href="#linearGradient3233"
       gradientUnits="userSpaceOnUse" />
    <linearGradient
       x1="17.160095"
       y1="14.004482"
       x2="37.969398"
       y2="56.575912"
       id="linearGradient13674"
       xlink:href="#linearGradient4176"
       gradientUnits="userSpaceOnUse"
       gradientTransform="matrix(1.010754,0,0,0.992756,-0.269358,-3.832747)" />
    <linearGradient
       x1="11.003058"
       y1="33.489445"
       x2="30.452171"
       y2="33.489445"
       id="linearGradient13676"
       xlink:href="#linearGradient3338"
       gradientUnits="userSpaceOnUse"
       gradientTransform="matrix(1.004593,0,0,1,-5.892444e-2,-2.082537)" />
    <linearGradient
       x1="24"
       y1="18.132908"
       x2="24"
       y2="8.0243998"
       id="linearGradient13678"
       xlink:href="#linearGradient1535"
       gradientUnits="userSpaceOnUse" />
    <linearGradient
       x1="24"
       y1="10.396756"
       x2="24"
       y2="20.118456"
       id="linearGradient13680"
       xlink:href="#linearGradient1523"
       gradientUnits="userSpaceOnUse" />
    <linearGradient
       x1="34.244171"
       y1="17.695425"
       x2="34.244171"
       y2="29.91827"
       id="linearGradient13682"
       xlink:href="#linearGradient3247"
       gradientUnits="userSpaceOnUse"
       gradientTransform="matrix(1.010754,0,0,1,-0.269359,-2.185007)" />
    <linearGradient
       x1="24"
       y1="17.245949"
       x2="23.433737"
       y2="8.0476589"
       id="linearGradient13684"
       xlink:href="#linearGradient3233"
       gradientUnits="userSpaceOnUse" />
    <radialGradient
       cx="23.857143"
       cy="40"
       r="17.142857"
       fx="23.857143"
       fy="40"
       id="radialGradient13686"
       xlink:href="#linearGradient4126"
       gradientUnits="userSpaceOnUse"
       gradientTransform="matrix(1,0,0,0.5,0,20)" />
    <linearGradient
       x1="16.07143"
       y1="19.5"
       x2="16.035715"
       y2="31.75"
       id="linearGradient13688"
       xlink:href="#linearGradient6924"
       gradientUnits="userSpaceOnUse"
       gradientTransform="matrix(1.010754,0,0,1,-0.269359,-1.327864)" />
    <linearGradient
       x1="24"
       y1="17.245949"
       x2="23.433737"
       y2="8.0476589"
       id="linearGradient13690"
       xlink:href="#linearGradient3233"
       gradientUnits="userSpaceOnUse" />
  </defs>
  <g
     id="layer1">
    <g
       transform="translate(-53.99282,-31.64138)"
       id="g4438" />
    <g
       transform="translate(-69.47324,5.480078)"
       id="g13692">
      <path
         d="M 41 40 A 17.142857 8.5714283 0 1 1  6.7142868,40 A 17.142857 8.5714283 0 1 1  41 40 z"
         transform="matrix(0.831993,0,0,0.904687,64.30097,-15.0916)"
         style="color:#000000;fill:url(#radialGradient13577);fill-opacity:1;fill-rule:nonzero;stroke:none;stroke-width:1;stroke-linecap:butt;stroke-linejoin:miter;marker:none;marker-start:none;marker-mid:none;marker-end:none;stroke-miterlimit:10;stroke-dasharray:none;stroke-dashoffset:0;stroke-opacity:1;visibility:visible;display:block;overflow:visible"
         id="path13497" />
      <g
         transform="matrix(0.793761,0,0,0.793761,64.87705,-5.922021)"
         id="g13654">
        <path
           d="M 41 40 A 17.142857 8.5714283 0 1 1  6.7142868,40 A 17.142857 8.5714283 0 1 1  41 40 z"
           transform="matrix(1.050001,0,0,1.166666,-1.050005,-13.66665)"
           style="opacity:1;color:#000000;fill:url(#radialGradient13668);fill-opacity:1;fill-rule:nonzero;stroke:none;stroke-width:1;stroke-linecap:butt;stroke-linejoin:miter;marker:none;marker-start:none;marker-mid:none;marker-end:none;stroke-miterlimit:10;stroke-dasharray:none;stroke-dashoffset:0;stroke-opacity:1;visibility:visible;display:block;overflow:visible"
           id="path3366" />
        <path
           d="M 23.925566,5.0026329 C 15.981619,5.0026329 9.522322,7.780881 9.522321,11.198547 C 9.522321,11.443791 9.522321,33.868013 9.522321,34.123423 C 9.522321,37.541089 15.981618,40.319336 23.925566,40.319336 C 31.869514,40.319336 38.586013,37.541088 38.586011,34.123423 C 38.586011,33.921128 38.586011,11.400842 38.586011,11.198547 C 38.586011,7.78088 31.869513,5.0026329 23.925566,5.0026329 z "
           style="opacity:1;color:#000000;fill:url(#linearGradient13670);fill-opacity:1;fill-rule:nonzero;stroke:#767973;stroke-width:1;stroke-linecap:butt;stroke-linejoin:miter;marker:none;marker-start:none;marker-mid:none;marker-end:none;stroke-miterlimit:10;stroke-dasharray:none;stroke-dashoffset:0;stroke-opacity:1;visibility:visible;display:block;overflow:visible"
           id="path3068" />
        <path
           d="M 36.857142 14.071428 A 12.857142 5.5 0 1 1  11.142858,14.071428 A 12.857142 5.5 0 1 1  36.857142 14.071428 z"
           transform="matrix(1.048446,0,0,0.971388,-0.969759,20.43377)"
           style="opacity:0.23626374;color:#000000;fill:#d3d7cf;fill-opacity:1;fill-rule:nonzero;stroke:url(#linearGradient13672);stroke-width:0.99090111;stroke-linecap:butt;stroke-linejoin:miter;marker:none;marker-start:none;marker-mid:none;marker-end:none;stroke-miterlimit:10;stroke-dasharray:none;stroke-dashoffset:0;stroke-opacity:1;visibility:visible;display:block;overflow:visible"
           id="path3241" />
        <path
           d="M 23.934282,5.7826598 C 16.527721,5.7826598 10.505378,8.3766515 10.505377,11.567653 C 10.505377,11.796633 10.505377,33.29517 10.505377,33.533641 C 10.505377,36.724644 16.52772,39.318634 23.934282,39.318634 C 31.340842,39.318634 37.602988,36.724643 37.602986,33.533641 C 37.602986,33.344764 37.602986,11.756533 37.602986,11.567653 C 37.602986,8.3766505 31.340841,5.7826598 23.934282,5.7826598 z "
           style="opacity:0.5443038;color:#000000;fill:none;fill-opacity:1;fill-rule:nonzero;stroke:url(#linearGradient13674);stroke-width:1.00000012;stroke-linecap:butt;stroke-linejoin:miter;marker:none;marker-start:none;marker-mid:none;marker-end:none;stroke-miterlimit:10;stroke-dasharray:none;stroke-dashoffset:0;stroke-opacity:1;visibility:visible;display:block;overflow:visible"
           id="path4174" />
        <path
           d="M 23.41643,26.438709 C 16.781984,26.573435 11.495072,25.367574 11.495072,28.055849 C 11.495072,28.37454 11.495072,33.032303 11.495072,33.348826 C 11.495072,36.123819 17.10024,38.377036 24.034575,38.377038 C 30.96891,38.377038 36.603512,36.123819 36.603513,33.348826 C 36.603513,33.032303 36.603513,28.37454 36.603513,28.055849 C 36.603513,25.280855 30.96891,26.43871 24.034575,26.438709 C 23.817877,26.438709 23.630444,26.434363 23.41643,26.438709 z "
           style="opacity:1;color:#000000;fill:url(#linearGradient13676);fill-opacity:1;fill-rule:nonzero;stroke:#e2811b;stroke-width:0.99621516;stroke-linecap:butt;stroke-linejoin:miter;marker:none;marker-start:none;marker-mid:none;marker-end:none;stroke-miterlimit:10;stroke-dasharray:none;stroke-dashoffset:0;stroke-opacity:1;visibility:visible;display:block;overflow:visible"
           id="path4432" />
        <path
           d="M 36.857142 14.071428 A 12.857142 5.5 0 1 1  11.142858,14.071428 A 12.857142 5.5 0 1 1  36.857142 14.071428 z"
           transform="matrix(0.972634,0,0,0.914029,0.651491,14.66547)"
           style="color:#000000;fill:url(#linearGradient13678);fill-opacity:1;fill-rule:nonzero;stroke:url(#linearGradient13680);stroke-width:1.06058359;stroke-linecap:butt;stroke-linejoin:miter;marker:none;marker-start:none;marker-mid:none;marker-end:none;stroke-miterlimit:10;stroke-dasharray:none;stroke-dashoffset:0;stroke-opacity:1;visibility:visible;display:block;overflow:visible"
           id="path4434" />
        <path
           d="M 35.976705,9.5000085 C 34.855663,8.5148985 33.907756,8.2149705 32.913658,7.7322416 L 33.219962,26.420065 L 35.976705,29.652552 L 35.976705,9.5000085 z "
           style="opacity:1;color:#000000;fill:url(#linearGradient13682);fill-opacity:1;fill-rule:nonzero;stroke:none;stroke-width:0.99999946;stroke-linecap:butt;stroke-linejoin:miter;marker:none;marker-start:none;marker-mid:none;marker-end:none;stroke-miterlimit:10;stroke-dasharray:none;stroke-dashoffset:0;stroke-opacity:1;visibility:visible;display:block;overflow:visible"
           id="path3245" />
        <path
           d="M 36.857142 14.071428 A 12.857142 5.5 0 1 1  11.142858,14.071428 A 12.857142 5.5 0 1 1  36.857142 14.071428 z"
           transform="matrix(1.048446,0,0,0.964345,-1.173962,-2.540419)"
           style="opacity:0.467033;color:#000000;fill:#f0f0f0;fill-opacity:1;fill-rule:nonzero;stroke:url(#linearGradient13684);stroke-width:0.99451303;stroke-linecap:butt;stroke-linejoin:miter;marker:none;marker-start:none;marker-mid:none;marker-end:none;stroke-miterlimit:10;stroke-dasharray:none;stroke-dashoffset:0;stroke-opacity:1;visibility:visible;display:block;overflow:visible"
           id="path3364" />
        <path
           d="M 41 40 A 17.142857 8.5714283 0 1 1  6.7142868,40 A 17.142857 8.5714283 0 1 1  41 40 z"
           transform="matrix(0.367338,0,0,0.36343,14.99239,-6.837321)"
           style="opacity:0.30769234;color:#000000;fill:url(#radialGradient13686);fill-opacity:1;fill-rule:nonzero;stroke:none;stroke-width:1;stroke-linecap:butt;stroke-linejoin:miter;marker:none;marker-start:none;marker-mid:none;marker-end:none;stroke-miterlimit:10;stroke-dasharray:none;stroke-dashoffset:0;stroke-opacity:1;visibility:visible;display:block;overflow:visible"
           id="path6944" />
        <path
           d="M 24.079287,3.4999955 C 22.054955,3.4999955 19.398199,4.2141485 19.398199,5.0926645 C 19.398199,5.1557045 19.398199,7.6566695 19.398199,7.7223235 C 19.398199,8.6008395 22.054955,9.3149925 24.079287,9.3149925 C 26.10362,9.3149925 28.537133,8.6008395 28.537132,7.7223235 C 28.537132,7.6703235 28.537132,5.1446645 28.537132,5.0926645 C 28.537132,4.2141475 26.10362,3.4999955 24.079287,3.4999955 z "
           style="opacity:1;color:#000000;fill:#9d9e9b;fill-opacity:1;fill-rule:nonzero;stroke:#7d7f7a;stroke-width:0.99999994;stroke-linecap:butt;stroke-linejoin:miter;marker:none;marker-start:none;marker-mid:none;marker-end:none;stroke-miterlimit:10;stroke-dasharray:none;stroke-dashoffset:0;stroke-opacity:1;visibility:visible;display:block;overflow:visible"
           id="path3362" />
        <path
           d="M 13.664611,15.743564 L 14.025593,32.529279 L 18.646184,33.814993 L 18.501791,17.100707 C 18.501791,17.100707 20.461486,17.012319 23.854733,16.798033 C 17.287485,16.74805 12.997787,15.219863 10.632348,12.95785 C 12.064485,15.050026 13.664611,15.743564 13.664611,15.743564 z "
           style="opacity:0.58241763;color:#000000;fill:url(#linearGradient13688);fill-opacity:1;fill-rule:nonzero;stroke:none;stroke-width:1;stroke-linecap:butt;stroke-linejoin:miter;marker:none;marker-start:none;marker-mid:none;marker-end:none;stroke-miterlimit:4;stroke-dasharray:none;stroke-dashoffset:0;stroke-opacity:1;visibility:visible;display:block;overflow:visible"
           id="path6922" />
        <path
           d="M 36.857142 14.071428 A 12.857142 5.5 0 1 1  11.142858,14.071428 A 12.857142 5.5 0 1 1  36.857142 14.071428 z"
           transform="matrix(0.274904,0,0,0.192106,17.38789,2.66837)"
           style="opacity:1;color:#000000;fill:#d3d7cf;fill-opacity:1;fill-rule:nonzero;stroke:url(#linearGradient13690);stroke-width:4.35150146;stroke-linecap:butt;stroke-linejoin:miter;marker:none;marker-start:none;marker-mid:none;marker-end:none;stroke-miterlimit:10;stroke-dasharray:none;stroke-dashoffset:0;stroke-opacity:1;visibility:visible;display:block;overflow:visible"
           id="path6940" />
      </g>
      <path
         d="M 95.890624,16.250155 C 91.834391,16.353005 83.563171,17.529695 82.203124,30.875155 C 82.157325,31.369784 82.15556,31.8549 82.234374,32.312655 C 82.232805,32.320455 82.235893,32.336112 82.234374,32.343905 C 81.06964,38.318296 94.397963,41.977714 100.29687,36.500155 L 111.54687,25.343905 C 112.86589,24.024895 111.69629,21.30381 111.54687,20.968905 C 111.53691,20.946578 111.54687,20.937655 111.54687,20.937655 C 109.67095,17.748581 100.39229,16.250155 97.015624,16.250155 C 96.699061,16.250155 96.310234,16.239515 95.890624,16.250155 z "
         style="fill:url(#linearGradient13640);fill-rule:nonzero;stroke:#595959;stroke-width:2;stroke-miterlimit:4;stroke-dasharray:none;stroke-opacity:1"
         id="path3796" />
      <path
         d="M 111.5412,20.961812 L 83.214708,30.24765 C 77.962113,37.376172 93.719897,42.628766 100.28564,36.532005 L 111.5412,25.37024 C 112.94815,23.963295 111.5412,20.961812 111.5412,20.961812 L 111.5412,20.961812 z "
         style="fill:url(#linearGradient13637);fill-rule:nonzero;stroke:none;stroke-miterlimit:4"
         id="path3659" />
      <path
         d="M 111.5412,21.430794 C 109.66527,18.241719 100.37944,16.740977 97.002769,16.740977 C 93.719897,16.740977 83.683689,16.647181 82.276744,31.373206 C 81.807762,36.438208 88.27971,39.72108 93.344712,38.126542 C 98.315918,36.532005 98.503511,28.746908 102.63055,25.557833 C 106.75759,22.368757 113.41713,24.713666 111.5412,21.52459 L 111.5412,21.430794 z "
         style="fill:#f0f0f0;fill-rule:nonzero;stroke:none;stroke-miterlimit:4"
         id="path3661" />
      <path
         d="M 111.5412,20.961812 C 109.66527,17.772737 100.37944,16.271995 97.002769,16.271995 C 93.626101,16.271995 83.683689,16.178199 82.182948,30.904224 C 81.713966,35.969226 88.185913,39.252098 93.250916,37.657561 C 98.222122,36.063023 98.409714,28.277927 102.53675,25.088851 C 106.66379,21.899776 113.32333,24.244684 111.44741,21.055609 L 111.5412,20.961812 z "
         style="fill:url(#linearGradient13633);fill-rule:nonzero;stroke:none;stroke-miterlimit:4"
         id="path3668" />
      <path
         d="M 111.72879,21.899776 C 112.01018,23.400517 105.81963,22.55635 104.41268,24.057092 C 103.28712,21.993572 98.691103,19.836256 95.220639,19.085886 C 91.843971,18.335515 87.716932,18.898293 87.716932,18.898293 C 93.438508,13.645698 111.25981,17.209959 111.72879,21.899776 z "
         style="fill:url(#linearGradient13630);fill-rule:nonzero;stroke:none;stroke-miterlimit:4"
         id="path3675" />
      <path
         d="M 104.69407,25.651629 C 108.44592,23.775703 109.1025,24.995055 111.35361,23.119128 C 109.85287,25.182648 107.78935,24.61987 105.53824,25.745426 L 104.60027,25.651629 L 104.69407,25.651629 z "
         style="opacity:0.3;fill:#ffffff;fill-rule:nonzero;stroke:none;stroke-miterlimit:4"
         id="path3677" />
      <path
         d="M 104.50648,24.057092 L 104.69407,25.745426 C 108.63351,23.775703 109.1025,25.464037 111.72879,22.837739 C 108.82111,24.807462 107.69555,23.775703 104.88166,24.995055 L 104.41268,24.150888 L 104.50648,24.057092 z "
         style="opacity:0.3;fill:#000000;fill-rule:nonzero;stroke:none;stroke-miterlimit:4"
         id="path3679" />
      <path
         d="M 95.220639,19.085886 L 95.783417,19.273478 C 98.503511,16.92857 105.81963,17.866533 105.81963,17.866533 C 105.81963,17.866533 98.034529,16.459588 95.220639,19.179682 L 95.220639,19.085886 z "
         style="opacity:0.3;fill:#000000;fill-rule:nonzero;stroke:none;stroke-miterlimit:4"
         id="path3681" />
      <path
         d="M 95.62209,16.770483 C 89.529703,17.114742 84.781568,19.06768 82.640503,31.173755 C 81.344497,38.501672 94.504121,41.161339 99.910255,36.141359 L 111.09546,25.042069 C 112.30429,23.833245 111.97032,21.457915 110.03296,20.095043 C 105.98752,17.249189 99.747702,16.770483 96.653111,16.770483 C 96.362993,16.770483 96.006647,16.760732 95.62209,16.770483 z "
         style="opacity:0.37362641;fill:none;fill-rule:nonzero;stroke:#ffffff;stroke-width:1;stroke-miterlimit:4;stroke-dasharray:none;stroke-opacity:1"
         id="path4680" />
      <g
         transform="matrix(0.937963,0,0,0.937963,75.89859,5.391626)"
         style="fill:#bababa;fill-rule:nonzero;stroke:#000000;stroke-miterlimit:4"
         id="g3683">
        <radialGradient
           cx="14.5474"
           cy="15.9844"
           r="4.5099001"
           fx="14.5474"
           fy="15.9844"
           id="radialGradient3782"
           gradientUnits="userSpaceOnUse"
           gradientTransform="matrix(0.907,0.4211,-0.4211,0.907,19.2898,-10.214)">
          <stop
             style="stop-color:#efefef;stop-opacity:1"
             offset="0"
             id="stop3784" />
          <stop
             style="stop-color:#6d6d6d;stop-opacity:1"
             offset="1"
             id="stop3786" />
        </radialGradient>
        <path
           d="M 26.8,11.2 C 25,10.9 23.9,12.1 23.5,13.1 C 24,13.7 24.5,13.9 25.7,13.8 C 27.5,13.7 28.3,13.6 29.5,12.8 C 28.9,12.2 28,11.3 26.8,11.1 L 26.8,11.2 z "
           style="fill:url(#radialGradient13607);stroke:none"
           id="path3690" />
        <radialGradient
           cx="12.4722"
           cy="15.9321"
           r="6.1648998"
           fx="12.4722"
           fy="15.9321"
           id="radialGradient3789"
           gradientUnits="userSpaceOnUse"
           gradientTransform="matrix(0.907,0.4211,-0.4211,0.907,19.2898,-10.214)">
          <stop
             style="stop-color:#9e9e9e;stop-opacity:1"
             offset="0"
             id="stop3791" />
          <stop
             style="stop-color:#535353;stop-opacity:1"
             offset="1"
             id="stop3793" />
        </radialGradient>
        <path
           d="M 27.6,11.9 C 26.5,11.7 25.9,13.2 25.7,13.9 C 26.8,13.8 28.6,13.6 29.3,12.8 C 29,12.4 28.4,12.1 27.6,12 L 27.6,11.9 z "
           style="fill:url(#radialGradient13609);stroke:none"
           id="path3697" />
      </g>
      <path
         d="M 116.99608,9.328601 C 115.3646,6.4555 112.63139,4.212163 109.21808,3.270153 C 105.80477,2.3281421 102.30784,2.852077 99.433696,4.48171"
         style="color:#000000;fill:none;fill-opacity:1;fill-rule:evenodd;stroke:#babdb6;stroke-width:1.00000036;stroke-linecap:round;stroke-linejoin:miter;marker:none;marker-start:none;marker-mid:none;marker-end:none;stroke-miterlimit:4;stroke-dasharray:none;stroke-dashoffset:0;stroke-opacity:1;visibility:visible;display:inline;overflow:visible"
         id="path3235" />
      <path
         d="M 113.45229,11.339423 C 112.33705,9.373566 110.46997,7.835192 108.13599,7.191054 C 105.802,6.546919 103.41018,6.909918 101.44452,8.025502"
         style="color:#000000;fill:none;fill-opacity:1;fill-rule:evenodd;stroke:#babdb6;stroke-width:1.00000036;stroke-linecap:round;stroke-linejoin:miter;marker:none;marker-start:none;marker-mid:none;marker-end:none;stroke-miterlimit:4;stroke-dasharray:none;stroke-dashoffset:0;stroke-opacity:1;visibility:visible;display:inline;overflow:visible"
         id="path3233" />
      <path
         d="M 109.9085,13.350245 C 109.30733,12.290752 108.31194,11.459156 107.05389,11.111958 C 105.79584,10.764762 104.51482,10.968108 103.45534,11.569294"
         style="color:#000000;fill:none;fill-opacity:1;fill-rule:evenodd;stroke:#babdb6;stroke-width:1.00000036;stroke-linecap:round;stroke-linejoin:miter;marker:none;marker-start:none;marker-mid:none;marker-end:none;stroke-miterlimit:4;stroke-dasharray:none;stroke-dashoffset:0;stroke-opacity:1;visibility:visible;display:inline;overflow:visible"
         id="path3227" />
    </g>
    <g
       transform="translate(-27.83014,-62.39595)"
       id="g13531" />
    <g
       transform="translate(25.41268,-23.25457)"
       id="g3054" />
    <g
       transform="translate(69.41268,-7.254574)"
       id="g13534" />
  </g>
  <g
     id="layer2" />
</svg>
