<?xml version="1.0" encoding="UTF-8" standalone="no"?>
<!-- Created with Inkscape (http://www.inkscape.org/) -->
<svg
   xmlns:svg="http://www.w3.org/2000/svg"
   xmlns="http://www.w3.org/2000/svg"
   xmlns:xlink="http://www.w3.org/1999/xlink"
   version="1.0"
   width="48"
   height="48"
   id="svg1328">
  <defs
     id="defs3">
    <linearGradient
       id="linearGradient1535">
      <stop
         style="stop-color:#f67800;stop-opacity:1"
         offset="0"
         id="stop1537" />
      <stop
         style="stop-color:#fcaf3e;stop-opacity:1"
         offset="1"
         id="stop1539" />
    </linearGradient>
    <linearGradient
       id="linearGradient1523">
      <stop
         style="stop-color:#ce5c00;stop-opacity:1"
         offset="0"
         id="stop1525" />
      <stop
         style="stop-color:#fcaf3e;stop-opacity:1"
         offset="1"
         id="stop1527" />
    </linearGradient>
    <linearGradient
       id="linearGradient3338">
      <stop
         style="stop-color:#c36000;stop-opacity:1"
         offset="0"
         id="stop3340" />
      <stop
         style="stop-color:#fcaf3e;stop-opacity:1"
         offset="0.5"
         id="stop3346" />
      <stop
         style="stop-color:#f57900;stop-opacity:1"
         offset="1"
         id="stop3342" />
    </linearGradient>
    <linearGradient
       id="linearGradient3247">
      <stop
         style="stop-color:#f0f0f0;stop-opacity:1"
         offset="0"
         id="stop3249" />
      <stop
         style="stop-color:#f0f0f0;stop-opacity:0"
         offset="1"
         id="stop3251" />
    </linearGradient>
    <linearGradient
       id="linearGradient3233">
      <stop
         style="stop-color:#eeeeec;stop-opacity:1"
         offset="0"
         id="stop3235" />
      <stop
         style="stop-color:#a3a398;stop-opacity:1"
         offset="1"
         id="stop3237" />
    </linearGradient>
    <linearGradient
       id="linearGradient6924">
      <stop
         style="stop-color:#ffffff;stop-opacity:1"
         offset="0"
         id="stop6926" />
      <stop
         style="stop-color:#ffffff;stop-opacity:0"
         offset="1"
         id="stop6928" />
    </linearGradient>
    <linearGradient
       id="linearGradient4176">
      <stop
         style="stop-color:#ffffff;stop-opacity:1"
         offset="0"
         id="stop4178" />
      <stop
         style="stop-color:#ffffff;stop-opacity:0"
         offset="1"
         id="stop4180" />
    </linearGradient>
    <linearGradient
       id="linearGradient4134">
      <stop
         style="stop-color:#d6d7d5;stop-opacity:1"
         offset="0"
         id="stop4136" />
      <stop
         style="stop-color:#d1d2d0;stop-opacity:1"
         offset="0.25"
         id="stop4148" />
      <stop
         style="stop-color:#a5a6a3;stop-opacity:1"
         offset="0.5"
         id="stop4142" />
      <stop
         style="stop-color:#dddedc;stop-opacity:1"
         offset="1"
         id="stop4138" />
    </linearGradient>
    <linearGradient
       id="linearGradient4126">
      <stop
         style="stop-color:#000000;stop-opacity:1"
         offset="0"
         id="stop4128" />
      <stop
         style="stop-color:#000000;stop-opacity:0"
         offset="1"
         id="stop4130" />
    </linearGradient>
    <linearGradient
       id="linearGradient2635">
      <stop
         style="stop-color:#f9fff5;stop-opacity:1"
         offset="0"
         id="stop2637" />
      <stop
         style="stop-color:#f9fff5;stop-opacity:0"
         offset="1"
         id="stop2639" />
    </linearGradient>
    <linearGradient
       id="linearGradient2752">
      <stop
         style="stop-color:#9d9d9d;stop-opacity:1"
         offset="0"
         id="stop2754" />
      <stop
         style="stop-color:#b9b9b9;stop-opacity:1"
         offset="1"
         id="stop2756" />
    </linearGradient>
    <linearGradient
       id="linearGradient2245">
      <stop
         style="stop-color:#dde1d9;stop-opacity:1"
         offset="0"
         id="stop2247" />
      <stop
         style="stop-color:#cacdc6;stop-opacity:1"
         offset="1"
         id="stop2249" />
    </linearGradient>
    <radialGradient
       cx="23.857143"
       cy="40"
       r="17.142857"
       fx="23.857143"
       fy="40"
       id="radialGradient5812"
       xlink:href="#linearGradient4126"
       gradientUnits="userSpaceOnUse"
       gradientTransform="matrix(1,0,0,0.5,0,20)" />
    <linearGradient
       x1="13.62871"
       y1="101.2846"
       x2="8.6485014"
       y2="74.098007"
       id="linearGradient5863"
       xlink:href="#linearGradient2635"
       gradientUnits="userSpaceOnUse"
       gradientTransform="matrix(2.143634,0,0,0.480712,58.2615,-6.952253)" />
    <linearGradient
       x1="8.1134243"
       y1="88.509071"
       x2="8.1134233"
       y2="100.20015"
       id="linearGradient5866"
       xlink:href="#linearGradient2752"
       gradientUnits="userSpaceOnUse"
       gradientTransform="matrix(2.309851,0,0,0.432928,57.2615,-5.526453)" />
    <linearGradient
       x1="8.1134243"
       y1="88.509071"
       x2="8.1134233"
       y2="100.20015"
       id="linearGradient5869"
       xlink:href="#linearGradient2752"
       gradientUnits="userSpaceOnUse"
       gradientTransform="matrix(2.247004,0,0,0.432928,58.20908,-5.526453)" />
    <linearGradient
       x1="8.1134243"
       y1="88.509071"
       x2="8.1134233"
       y2="100.20015"
       id="linearGradient5872"
       xlink:href="#linearGradient2752"
       gradientUnits="userSpaceOnUse"
       gradientTransform="matrix(2.012827,0,0,0.432928,61.75126,-5.526453)" />
    <linearGradient
       x1="18.316999"
       y1="48.643234"
       x2="18.176752"
       y2="52.536461"
       id="linearGradient5878"
       xlink:href="#linearGradient2245"
       gradientUnits="userSpaceOnUse"
       gradientTransform="matrix(1.129863,0,0,0.899111,57.2615,-5.971186)" />
    <radialGradient
       cx="23.857143"
       cy="40"
       r="17.142857"
       fx="23.857143"
       fy="40"
       id="radialGradient5881"
       xlink:href="#linearGradient4126"
       gradientUnits="userSpaceOnUse"
       gradientTransform="matrix(1,0,0,0.5,0,20)" />
    <linearGradient
       x1="9.3030529"
       y1="26.71875"
       x2="38.826412"
       y2="26.71875"
       id="linearGradient5883"
       xlink:href="#linearGradient4134"
       gradientUnits="userSpaceOnUse"
       gradientTransform="matrix(1.010754,0,0,0.991346,-0.269358,-3.826541)" />
    <linearGradient
       x1="24"
       y1="17.245949"
       x2="23.433737"
       y2="8.0476589"
       id="linearGradient5885"
       xlink:href="#linearGradient3233"
       gradientUnits="userSpaceOnUse" />
    <linearGradient
       x1="17.160095"
       y1="14.004482"
       x2="37.969398"
       y2="56.575912"
       id="linearGradient5887"
       xlink:href="#linearGradient4176"
       gradientUnits="userSpaceOnUse"
       gradientTransform="matrix(1.010754,0,0,0.992756,-0.269358,-3.832747)" />
    <linearGradient
       x1="11.003058"
       y1="33.489445"
       x2="30.452171"
       y2="33.489445"
       id="linearGradient5889"
       xlink:href="#linearGradient3338"
       gradientUnits="userSpaceOnUse"
       gradientTransform="matrix(1.004593,0,0,1,-5.892444e-2,-2.082537)" />
    <linearGradient
       x1="24"
       y1="18.132908"
       x2="24"
       y2="8.0243998"
       id="linearGradient5891"
       xlink:href="#linearGradient1535"
       gradientUnits="userSpaceOnUse" />
    <linearGradient
       x1="24"
       y1="10.396756"
       x2="24"
       y2="20.118456"
       id="linearGradient5893"
       xlink:href="#linearGradient1523"
       gradientUnits="userSpaceOnUse" />
    <linearGradient
       x1="34.244171"
       y1="17.695425"
       x2="34.244171"
       y2="29.91827"
       id="linearGradient5895"
       xlink:href="#linearGradient3247"
       gradientUnits="userSpaceOnUse"
       gradientTransform="matrix(1.010754,0,0,1,-0.269359,-2.185007)" />
    <linearGradient
       x1="24"
       y1="17.245949"
       x2="23.433737"
       y2="8.0476589"
       id="linearGradient5897"
       xlink:href="#linearGradient3233"
       gradientUnits="userSpaceOnUse" />
    <radialGradient
       cx="23.857143"
       cy="40"
       r="17.142857"
       fx="23.857143"
       fy="40"
       id="radialGradient5899"
       xlink:href="#linearGradient4126"
       gradientUnits="userSpaceOnUse"
       gradientTransform="matrix(1,0,0,0.5,0,20)" />
    <linearGradient
       x1="16.07143"
       y1="19.5"
       x2="16.035715"
       y2="31.75"
       id="linearGradient5901"
       xlink:href="#linearGradient6924"
       gradientUnits="userSpaceOnUse"
       gradientTransform="matrix(1.010754,0,0,1,-0.269359,-1.327864)" />
    <linearGradient
       x1="24"
       y1="17.245949"
       x2="23.433737"
       y2="8.0476589"
       id="linearGradient5903"
       xlink:href="#linearGradient3233"
       gradientUnits="userSpaceOnUse" />
  </defs>
  <g
     id="layer1">
    <g
       transform="translate(-53.99282,-31.64138)"
       id="g4438" />
    <g
       transform="translate(-56.21499,6.540738)"
       id="g5906">
      <path
         d="M 41 40 A 17.142857 8.5714283 0 1 1  6.7142868,40 A 17.142857 8.5714283 0 1 1  41 40 z"
         transform="matrix(0.831993,0,0,0.904687,52.14979,-15.36349)"
         style="color:#000000;fill:url(#radialGradient5812);fill-opacity:1;fill-rule:nonzero;stroke:none;stroke-width:1;stroke-linecap:butt;stroke-linejoin:miter;marker:none;marker-start:none;marker-mid:none;marker-end:none;stroke-miterlimit:10;stroke-dasharray:none;stroke-dashoffset:0;stroke-opacity:1;visibility:visible;display:block;overflow:visible"
         id="path5738" />
      <g
         transform="matrix(0.762334,0,0,0.762334,53.57513,-7.595507)"
         id="g5769">
        <path
           d="M 41 40 A 17.142857 8.5714283 0 1 1  6.7142868,40 A 17.142857 8.5714283 0 1 1  41 40 z"
           transform="matrix(1.050001,0,0,1.166666,-1.050005,-13.66665)"
           style="opacity:1;color:#000000;fill:url(#radialGradient5881);fill-opacity:1;fill-rule:nonzero;stroke:none;stroke-width:1;stroke-linecap:butt;stroke-linejoin:miter;marker:none;marker-start:none;marker-mid:none;marker-end:none;stroke-miterlimit:10;stroke-dasharray:none;stroke-dashoffset:0;stroke-opacity:1;visibility:visible;display:block;overflow:visible"
           id="path3366" />
        <path
           d="M 23.925566,5.0026329 C 15.981619,5.0026329 9.522322,7.780881 9.522321,11.198547 C 9.522321,11.443791 9.522321,33.868013 9.522321,34.123423 C 9.522321,37.541089 15.981618,40.319336 23.925566,40.319336 C 31.869514,40.319336 38.586013,37.541088 38.586011,34.123423 C 38.586011,33.921128 38.586011,11.400842 38.586011,11.198547 C 38.586011,7.78088 31.869513,5.0026329 23.925566,5.0026329 z "
           style="opacity:1;color:#000000;fill:url(#linearGradient5883);fill-opacity:1;fill-rule:nonzero;stroke:#767973;stroke-width:1;stroke-linecap:butt;stroke-linejoin:miter;marker:none;marker-start:none;marker-mid:none;marker-end:none;stroke-miterlimit:10;stroke-dasharray:none;stroke-dashoffset:0;stroke-opacity:1;visibility:visible;display:block;overflow:visible"
           id="path3068" />
        <path
           d="M 36.857142 14.071428 A 12.857142 5.5 0 1 1  11.142858,14.071428 A 12.857142 5.5 0 1 1  36.857142 14.071428 z"
           transform="matrix(1.048446,0,0,0.971388,-0.969759,20.43377)"
           style="opacity:0.23626374;color:#000000;fill:#d3d7cf;fill-opacity:1;fill-rule:nonzero;stroke:url(#linearGradient5885);stroke-width:0.99090111;stroke-linecap:butt;stroke-linejoin:miter;marker:none;marker-start:none;marker-mid:none;marker-end:none;stroke-miterlimit:10;stroke-dasharray:none;stroke-dashoffset:0;stroke-opacity:1;visibility:visible;display:block;overflow:visible"
           id="path3241" />
        <path
           d="M 23.934282,5.7826598 C 16.527721,5.7826598 10.505378,8.3766515 10.505377,11.567653 C 10.505377,11.796633 10.505377,33.29517 10.505377,33.533641 C 10.505377,36.724644 16.52772,39.318634 23.934282,39.318634 C 31.340842,39.318634 37.602988,36.724643 37.602986,33.533641 C 37.602986,33.344764 37.602986,11.756533 37.602986,11.567653 C 37.602986,8.3766505 31.340841,5.7826598 23.934282,5.7826598 z "
           style="opacity:0.5443038;color:#000000;fill:none;fill-opacity:1;fill-rule:nonzero;stroke:url(#linearGradient5887);stroke-width:1.00000012;stroke-linecap:butt;stroke-linejoin:miter;marker:none;marker-start:none;marker-mid:none;marker-end:none;stroke-miterlimit:10;stroke-dasharray:none;stroke-dashoffset:0;stroke-opacity:1;visibility:visible;display:block;overflow:visible"
           id="path4174" />
        <path
           d="M 23.41643,26.438709 C 16.781984,26.573435 11.495072,25.367574 11.495072,28.055849 C 11.495072,28.37454 11.495072,33.032303 11.495072,33.348826 C 11.495072,36.123819 17.10024,38.377036 24.034575,38.377038 C 30.96891,38.377038 36.603512,36.123819 36.603513,33.348826 C 36.603513,33.032303 36.603513,28.37454 36.603513,28.055849 C 36.603513,25.280855 30.96891,26.43871 24.034575,26.438709 C 23.817877,26.438709 23.630444,26.434363 23.41643,26.438709 z "
           style="opacity:1;color:#000000;fill:url(#linearGradient5889);fill-opacity:1;fill-rule:nonzero;stroke:#e2811b;stroke-width:0.99621516;stroke-linecap:butt;stroke-linejoin:miter;marker:none;marker-start:none;marker-mid:none;marker-end:none;stroke-miterlimit:10;stroke-dasharray:none;stroke-dashoffset:0;stroke-opacity:1;visibility:visible;display:block;overflow:visible"
           id="path4432" />
        <path
           d="M 36.857142 14.071428 A 12.857142 5.5 0 1 1  11.142858,14.071428 A 12.857142 5.5 0 1 1  36.857142 14.071428 z"
           transform="matrix(0.972634,0,0,0.914029,0.651491,14.66547)"
           style="color:#000000;fill:url(#linearGradient5891);fill-opacity:1;fill-rule:nonzero;stroke:url(#linearGradient5893);stroke-width:1.06058359;stroke-linecap:butt;stroke-linejoin:miter;marker:none;marker-start:none;marker-mid:none;marker-end:none;stroke-miterlimit:10;stroke-dasharray:none;stroke-dashoffset:0;stroke-opacity:1;visibility:visible;display:block;overflow:visible"
           id="path4434" />
        <path
           d="M 35.976705,9.5000085 C 34.855663,8.5148985 33.907756,8.2149705 32.913658,7.7322416 L 33.219962,26.420065 L 35.976705,29.652552 L 35.976705,9.5000085 z "
           style="opacity:1;color:#000000;fill:url(#linearGradient5895);fill-opacity:1;fill-rule:nonzero;stroke:none;stroke-width:0.99999946;stroke-linecap:butt;stroke-linejoin:miter;marker:none;marker-start:none;marker-mid:none;marker-end:none;stroke-miterlimit:10;stroke-dasharray:none;stroke-dashoffset:0;stroke-opacity:1;visibility:visible;display:block;overflow:visible"
           id="path3245" />
        <path
           d="M 36.857142 14.071428 A 12.857142 5.5 0 1 1  11.142858,14.071428 A 12.857142 5.5 0 1 1  36.857142 14.071428 z"
           transform="matrix(1.048446,0,0,0.964345,-1.173962,-2.540419)"
           style="opacity:0.467033;color:#000000;fill:#f0f0f0;fill-opacity:1;fill-rule:nonzero;stroke:url(#linearGradient5897);stroke-width:0.99451303;stroke-linecap:butt;stroke-linejoin:miter;marker:none;marker-start:none;marker-mid:none;marker-end:none;stroke-miterlimit:10;stroke-dasharray:none;stroke-dashoffset:0;stroke-opacity:1;visibility:visible;display:block;overflow:visible"
           id="path3364" />
        <path
           d="M 41 40 A 17.142857 8.5714283 0 1 1  6.7142868,40 A 17.142857 8.5714283 0 1 1  41 40 z"
           transform="matrix(0.367338,0,0,0.36343,14.99239,-6.837321)"
           style="opacity:0.30769234;color:#000000;fill:url(#radialGradient5899);fill-opacity:1;fill-rule:nonzero;stroke:none;stroke-width:1;stroke-linecap:butt;stroke-linejoin:miter;marker:none;marker-start:none;marker-mid:none;marker-end:none;stroke-miterlimit:10;stroke-dasharray:none;stroke-dashoffset:0;stroke-opacity:1;visibility:visible;display:block;overflow:visible"
           id="path6944" />
        <path
           d="M 24.079287,3.4999955 C 22.054955,3.4999955 19.398199,4.2141485 19.398199,5.0926645 C 19.398199,5.1557045 19.398199,7.6566695 19.398199,7.7223235 C 19.398199,8.6008395 22.054955,9.3149925 24.079287,9.3149925 C 26.10362,9.3149925 28.537133,8.6008395 28.537132,7.7223235 C 28.537132,7.6703235 28.537132,5.1446645 28.537132,5.0926645 C 28.537132,4.2141475 26.10362,3.4999955 24.079287,3.4999955 z "
           style="opacity:1;color:#000000;fill:#9d9e9b;fill-opacity:1;fill-rule:nonzero;stroke:#7d7f7a;stroke-width:0.99999994;stroke-linecap:butt;stroke-linejoin:miter;marker:none;marker-start:none;marker-mid:none;marker-end:none;stroke-miterlimit:10;stroke-dasharray:none;stroke-dashoffset:0;stroke-opacity:1;visibility:visible;display:block;overflow:visible"
           id="path3362" />
        <path
           d="M 13.664611,15.743564 L 14.025593,32.529279 L 18.646184,33.814993 L 18.501791,17.100707 C 18.501791,17.100707 20.461486,17.012319 23.854733,16.798033 C 17.287485,16.74805 12.997787,15.219863 10.632348,12.95785 C 12.064485,15.050026 13.664611,15.743564 13.664611,15.743564 z "
           style="opacity:0.58241763;color:#000000;fill:url(#linearGradient5901);fill-opacity:1;fill-rule:nonzero;stroke:none;stroke-width:1;stroke-linecap:butt;stroke-linejoin:miter;marker:none;marker-start:none;marker-mid:none;marker-end:none;stroke-miterlimit:4;stroke-dasharray:none;stroke-dashoffset:0;stroke-opacity:1;visibility:visible;display:block;overflow:visible"
           id="path6922" />
        <path
           d="M 36.857142 14.071428 A 12.857142 5.5 0 1 1  11.142858,14.071428 A 12.857142 5.5 0 1 1  36.857142 14.071428 z"
           transform="matrix(0.274904,0,0,0.192106,17.38789,2.66837)"
           style="opacity:1;color:#000000;fill:#d3d7cf;fill-opacity:1;fill-rule:nonzero;stroke:url(#linearGradient5903);stroke-width:4.35150146;stroke-linecap:butt;stroke-linejoin:miter;marker:none;marker-start:none;marker-mid:none;marker-end:none;stroke-miterlimit:10;stroke-dasharray:none;stroke-dashoffset:0;stroke-opacity:1;visibility:visible;display:block;overflow:visible"
           id="path6940" />
      </g>
      <path
         d="M 66.349433,23.00029 L 97.351839,23.00029 C 98.471088,23.00029 98.329194,23.477472 98.444066,24.077658 L 101.27871,38.888257 C 101.39358,39.488446 101.30573,39.965625 100.18649,39.965625 L 63.514787,39.965625 C 62.395538,39.965625 62.307688,39.488446 62.42256,38.888257 L 65.257205,24.077658 C 65.372077,23.47747 65.230184,23.00029 66.349433,23.00029 z "
         style="color:#000000;fill:url(#linearGradient5878);fill-opacity:1;fill-rule:evenodd;stroke:#888a85;stroke-width:1.00000012;stroke-linecap:butt;stroke-linejoin:miter;marker:none;marker-start:none;marker-mid:none;marker-end:none;stroke-miterlimit:4;stroke-dasharray:none;stroke-dashoffset:0;stroke-opacity:1;visibility:visible;display:inline;overflow:visible"
         id="path2409" />
      <path
         d="M 66.981169,26.473541 L 65.2615,35.345025 L 70.592474,35.345025 L 71.108375,31.827023 L 85.553593,31.827023 L 86.088317,35.418021 L 92.088335,35.418021 L 90.45465,26.473541 L 66.981169,26.473541 z "
         style="fill:#7a7d77;fill-opacity:1;fill-rule:evenodd;stroke:none;stroke-width:0.25pt;stroke-linecap:butt;stroke-linejoin:miter;stroke-opacity:1"
         id="path2611" />
      <path
         d="M 70.963521,32.43885 L 70.521579,35.345026 L 85.282433,35.345026 L 84.840491,32.285895 L 70.963521,32.43885 z "
         style="fill:#777874;fill-opacity:1;fill-rule:evenodd;stroke:none;stroke-width:0.25pt;stroke-linecap:butt;stroke-linejoin:miter;stroke-opacity:1"
         id="path2613" />
      <path
         d="M 96.798073,26.473543 L 98.2615,35.192069 L 93.486106,35.039111 L 92.176724,26.626499 L 96.798073,26.473543 z "
         style="color:#000000;fill:#777a75;fill-opacity:1;fill-rule:evenodd;stroke:none;stroke-width:0.25pt;stroke-linecap:butt;stroke-linejoin:miter;marker:none;marker-start:none;marker-mid:none;marker-end:none;stroke-miterlimit:4;stroke-dashoffset:0;stroke-opacity:1;visibility:visible;display:inline;overflow:visible"
         id="path2619" />
      <path
         d="M 96.798073,25.555807 L 98.2615,34.274333 L 93.486106,34.121375 L 92.176724,25.708763 L 96.798073,25.555807 z "
         style="color:#000000;fill:url(#linearGradient5872);fill-opacity:1;fill-rule:evenodd;stroke:none;stroke-width:0.25pt;stroke-linecap:butt;stroke-linejoin:miter;marker:none;marker-start:none;marker-mid:none;marker-end:none;stroke-miterlimit:4;stroke-dasharray:none;stroke-dashoffset:0;stroke-opacity:1;visibility:visible;display:inline;overflow:visible"
         id="path2615" />
      <path
         d="M 66.981169,25.402849 L 65.2615,34.274333 L 70.592474,34.274333 L 71.108375,30.756331 L 85.553593,30.756331 L 86.088317,34.347329 L 92.088335,34.347329 L 90.45465,25.402849 L 66.981169,25.402849 z "
         style="fill:url(#linearGradient5869);fill-opacity:1;fill-rule:evenodd;stroke:none;stroke-width:0.25pt;stroke-linecap:butt;stroke-linejoin:miter;stroke-opacity:1"
         id="path2617" />
      <path
         d="M 70.963521,31.521115 L 70.521579,34.42729 L 85.282433,34.42729 L 84.840491,31.368159 L 70.963521,31.521115 z "
         style="color:#000000;fill:url(#linearGradient5866);fill-opacity:1;fill-rule:evenodd;stroke:none;stroke-width:0.25pt;stroke-linecap:butt;stroke-linejoin:miter;marker:none;marker-start:none;marker-mid:none;marker-end:none;stroke-miterlimit:4;stroke-dasharray:none;stroke-dashoffset:0;stroke-opacity:1;visibility:visible;display:inline;overflow:visible"
         id="path2621" />
      <path
         d="M 66.015068,24.316297 L 97.840883,24.316297 L 100.47806,38.747234 L 63.216992,38.747234 L 66.015068,24.316297 z "
         style="color:#000000;fill:none;fill-opacity:1;fill-rule:evenodd;stroke:url(#linearGradient5863);stroke-width:0.5;stroke-linecap:butt;stroke-linejoin:round;marker:none;marker-start:none;marker-mid:none;marker-end:none;stroke-miterlimit:4;stroke-dashoffset:0;stroke-opacity:1;visibility:visible;display:inline;overflow:visible"
         id="path2631" />
      <path
         d="M 92.2615,22.88426 C 93.214496,20.446791 92.944685,15.971311 93.2615,12.473541 C 93.54236,16.314317 93.557092,21.884928 94.2615,22.972648 L 92.2615,22.88426 z "
         style="color:#000000;fill:#dde1d9;fill-opacity:1;fill-rule:evenodd;stroke:#888a85;stroke-width:1;stroke-linecap:butt;stroke-linejoin:miter;marker:none;marker-start:none;marker-mid:none;marker-end:none;stroke-miterlimit:4;stroke-dasharray:none;stroke-dashoffset:0;stroke-opacity:1;visibility:visible;display:inline;overflow:visible"
         id="path2460" />
      <path
         d="M 37.38827 20.246059 A 1.5909903 1.5909903 0 1 1  34.206289,20.246059 A 1.5909903 1.5909903 0 1 1  37.38827 20.246059 z"
         transform="translate(57.55521,-7.863509)"
         style="color:#000000;fill:#555753;fill-opacity:1;fill-rule:evenodd;stroke:#2e3436;stroke-width:1;stroke-linecap:butt;stroke-linejoin:miter;marker:none;marker-start:none;marker-mid:none;marker-end:none;stroke-miterlimit:4;stroke-dasharray:none;stroke-dashoffset:0;stroke-opacity:1;visibility:visible;display:inline;overflow:visible"
         id="path3335" />
      <path
         d="M 102.27722,1.8712362 C 99.940187,-0.4642962 96.708665,-1.8996584 93.167749,-1.8996584 C 89.626833,-1.8996584 86.395311,-0.4642962 84.05828,1.8712362"
         style="color:#000000;fill:none;fill-opacity:1;fill-rule:evenodd;stroke:#babdb6;stroke-width:1.00000036;stroke-linecap:round;stroke-linejoin:miter;marker:none;marker-start:none;marker-mid:none;marker-end:none;stroke-miterlimit:4;stroke-dasharray:none;stroke-dashoffset:0;stroke-opacity:1;visibility:visible;display:inline;overflow:visible"
         id="path3235" />
      <path
         d="M 99.396084,4.75237 C 97.798045,3.15405 95.588991,2.1678226 93.167749,2.1678226 C 90.746507,2.1678246 88.537453,3.154052 86.939414,4.75237"
         style="color:#000000;fill:none;fill-opacity:1;fill-rule:evenodd;stroke:#babdb6;stroke-width:1.00000036;stroke-linecap:round;stroke-linejoin:miter;marker:none;marker-start:none;marker-mid:none;marker-end:none;stroke-miterlimit:4;stroke-dasharray:none;stroke-dashoffset:0;stroke-opacity:1;visibility:visible;display:inline;overflow:visible"
         id="path3233" />
      <path
         d="M 96.51495,7.633504 C 95.653587,6.772123 94.472827,6.235306 93.167749,6.235306 C 91.86267,6.235308 90.68191,6.772123 89.820549,7.633504"
         style="color:#000000;fill:none;fill-opacity:1;fill-rule:evenodd;stroke:#babdb6;stroke-width:1.00000036;stroke-linecap:round;stroke-linejoin:miter;marker:none;marker-start:none;marker-mid:none;marker-end:none;stroke-miterlimit:4;stroke-dasharray:none;stroke-dashoffset:0;stroke-opacity:1;visibility:visible;display:inline;overflow:visible"
         id="path3227" />
    </g>
    <g
       transform="translate(7.86461,-61.61391)"
       id="g5764" />
    <g
       transform="translate(61.10743,-22.47253)"
       id="g3054" />
    <g
       transform="translate(57.2615,-7.526459)"
       id="g5767" />
  </g>
  <g
     id="layer2" />
</svg>
